<svg width="1440" height="312" viewBox="0 0 1440 312" fill="none" xmlns="http://www.w3.org/2000/svg">
  <g clip-path="url(#clip0_8258_27430)">
    <rect width="1440" height="312" fill="url(#paint0_linear_8258_27430)"/>
    <g opacity="0.32">
      <path opacity="0.5" d="M1290.05 185.835C1294.14 185.835 1297.45 183.352 1297.45 180.29C1297.45 177.228 1294.14 174.746 1290.05 174.746C1285.97 174.746 1282.65 177.228 1282.65 180.29C1282.65 183.352 1285.97 185.835 1290.05 185.835Z" fill="white" fill-opacity="0.32"/>
      <path opacity="0.5" d="M709.774 239.201C712.948 239.201 715.521 237.273 715.521 234.895C715.521 232.518 712.948 230.59 709.774 230.59C706.6 230.59 704.027 232.518 704.027 234.895C704.027 237.273 706.6 239.201 709.774 239.201Z" fill="white" fill-opacity="0.32"/>
    </g>
    <path opacity="0.32" d="M1397.76 53.0129C1402.73 53.0129 1406.76 48.831 1406.76 43.6724C1406.76 38.5139 1402.73 34.332 1397.76 34.332C1392.79 34.332 1388.76 38.5139 1388.76 43.6724C1388.76 48.831 1392.79 53.0129 1397.76 53.0129Z" fill="white" fill-opacity="0.2"/>
    <path opacity="0.32" d="M1293.67 111.131C1300.99 111.131 1306.92 105.311 1306.92 98.1309C1306.92 90.9512 1300.99 85.1309 1293.67 85.1309C1286.35 85.1309 1280.41 90.9512 1280.41 98.1309C1280.41 105.311 1286.35 111.131 1293.67 111.131Z" fill="white" fill-opacity="0.2"/>
    <path opacity="0.32" d="M1347.05 197.835C1351.14 197.835 1354.45 195.352 1354.45 192.29C1354.45 189.228 1351.14 186.746 1347.05 186.746C1342.97 186.746 1339.65 189.228 1339.65 192.29C1339.65 195.352 1342.97 197.835 1347.05 197.835Z" fill="white" fill-opacity="0.2"/>
    <path opacity="0.32" d="M767 254C770.314 254 773 251.538 773 248.5C773 245.462 770.314 243 767 243C763.686 243 761 245.462 761 248.5C761 251.538 763.686 254 767 254Z" fill="white" fill-opacity="0.2"/>
    <path opacity="0.32" d="M643.5 205C646.538 205 649 202.538 649 199.5C649 196.462 646.538 194 643.5 194C640.462 194 638 196.462 638 199.5C638 202.538 640.462 205 643.5 205Z" fill="white" fill-opacity="0.1"/>
    <g opacity="0.32" filter="url(#filter0_f_8258_27430)">
      <path d="M670 276C678.837 276 686 269.508 686 261.5C686 253.492 678.837 247 670 247C661.163 247 654 253.492 654 261.5C654 269.508 661.163 276 670 276Z" fill="white" fill-opacity="0.1"/>
    </g>
    <g opacity="0.32" filter="url(#filter1_f_8258_27430)">
      <path d="M552 70C563.046 70 572 60.8218 572 49.5C572 38.1782 563.046 29 552 29C540.954 29 532 38.1782 532 49.5C532 60.8218 540.954 70 552 70Z" fill="white" fill-opacity="0.2"/>
    </g>
    <g opacity="0.32" filter="url(#filter2_f_8258_27430)">
      <path d="M100.5 105C118.449 105 133 91.7924 133 75.5C133 59.2076 118.449 46 100.5 46C82.5508 46 68 59.2076 68 75.5C68 91.7924 82.5508 105 100.5 105Z" fill="white" fill-opacity="0.2"/>
    </g>
    <g opacity="0.32" filter="url(#filter3_f_8258_27430)">
      <path d="M564 205C572.837 205 580 198.508 580 190.5C580 182.492 572.837 176 564 176C555.163 176 548 182.492 548 190.5C548 198.508 555.163 205 564 205Z" fill="white" fill-opacity="0.1"/>
    </g>
    <g opacity="0.32" filter="url(#filter4_f_8258_27430)">
      <path d="M451 340C473.644 340 492 323.435 492 303C492 282.565 473.644 266 451 266C428.356 266 410 282.565 410 303C410 323.435 428.356 340 451 340Z" fill="white" fill-opacity="0.2"/>
    </g>
    <g opacity="0.32" filter="url(#filter5_f_8258_27430)">
      <path d="M1159 186C1167.84 186 1175 179.508 1175 171.5C1175 163.492 1167.84 157 1159 157C1150.16 157 1143 163.492 1143 171.5C1143 179.508 1150.16 186 1159 186Z" fill="white" fill-opacity="0.2"/>
    </g>
    <g opacity="0.32" filter="url(#filter6_f_8258_27430)">
      <path d="M847.5 231C866.002 231 881 217.345 881 200.5C881 183.655 866.002 170 847.5 170C828.998 170 814 183.655 814 200.5C814 217.345 828.998 231 847.5 231Z" fill="white" fill-opacity="0.2"/>
    </g>
    <g opacity="0.32" filter="url(#filter7_f_8258_27430)">
      <path d="M1074.5 95C1086.93 95 1097 85.8218 1097 74.5C1097 63.1782 1086.93 54 1074.5 54C1062.07 54 1052 63.1782 1052 74.5C1052 85.8218 1062.07 95 1074.5 95Z" fill="white" fill-opacity="0.44"/>
    </g>
    <path opacity="0.32" d="M460.26 132.432C466.611 132.432 471.76 127.204 471.76 120.754C471.76 114.305 466.611 109.076 460.26 109.076C453.908 109.076 448.76 114.305 448.76 120.754C448.76 127.204 453.908 132.432 460.26 132.432Z" fill="white" fill-opacity="0.2"/>
  </g>
  <defs>
    <filter id="filter0_f_8258_27430" x="634" y="227" width="72" height="69" filterUnits="userSpaceOnUse" color-interpolation-filters="sRGB">
      <feFlood flood-opacity="0" result="BackgroundImageFix"/>
      <feBlend mode="normal" in="SourceGraphic" in2="BackgroundImageFix" result="shape"/>
      <feGaussianBlur stdDeviation="10" result="effect1_foregroundBlur_8258_27430"/>
    </filter>
    <filter id="filter1_f_8258_27430" x="512" y="9" width="80" height="81" filterUnits="userSpaceOnUse" color-interpolation-filters="sRGB">
      <feFlood flood-opacity="0" result="BackgroundImageFix"/>
      <feBlend mode="normal" in="SourceGraphic" in2="BackgroundImageFix" result="shape"/>
      <feGaussianBlur stdDeviation="10" result="effect1_foregroundBlur_8258_27430"/>
    </filter>
    <filter id="filter2_f_8258_27430" x="48" y="26" width="105" height="99" filterUnits="userSpaceOnUse" color-interpolation-filters="sRGB">
      <feFlood flood-opacity="0" result="BackgroundImageFix"/>
      <feBlend mode="normal" in="SourceGraphic" in2="BackgroundImageFix" result="shape"/>
      <feGaussianBlur stdDeviation="10" result="effect1_foregroundBlur_8258_27430"/>
    </filter>
    <filter id="filter3_f_8258_27430" x="528" y="156" width="72" height="69" filterUnits="userSpaceOnUse" color-interpolation-filters="sRGB">
      <feFlood flood-opacity="0" result="BackgroundImageFix"/>
      <feBlend mode="normal" in="SourceGraphic" in2="BackgroundImageFix" result="shape"/>
      <feGaussianBlur stdDeviation="10" result="effect1_foregroundBlur_8258_27430"/>
    </filter>
    <filter id="filter4_f_8258_27430" x="390" y="246" width="122" height="114" filterUnits="userSpaceOnUse" color-interpolation-filters="sRGB">
      <feFlood flood-opacity="0" result="BackgroundImageFix"/>
      <feBlend mode="normal" in="SourceGraphic" in2="BackgroundImageFix" result="shape"/>
      <feGaussianBlur stdDeviation="10" result="effect1_foregroundBlur_8258_27430"/>
    </filter>
    <filter id="filter5_f_8258_27430" x="1123" y="137" width="72" height="69" filterUnits="userSpaceOnUse" color-interpolation-filters="sRGB">
      <feFlood flood-opacity="0" result="BackgroundImageFix"/>
      <feBlend mode="normal" in="SourceGraphic" in2="BackgroundImageFix" result="shape"/>
      <feGaussianBlur stdDeviation="10" result="effect1_foregroundBlur_8258_27430"/>
    </filter>
    <filter id="filter6_f_8258_27430" x="792" y="148" width="111" height="105" filterUnits="userSpaceOnUse" color-interpolation-filters="sRGB">
      <feFlood flood-opacity="0" result="BackgroundImageFix"/>
      <feBlend mode="normal" in="SourceGraphic" in2="BackgroundImageFix" result="shape"/>
      <feGaussianBlur stdDeviation="11" result="effect1_foregroundBlur_8258_27430"/>
    </filter>
    <filter id="filter7_f_8258_27430" x="1030" y="32" width="89" height="85" filterUnits="userSpaceOnUse" color-interpolation-filters="sRGB">
      <feFlood flood-opacity="0" result="BackgroundImageFix"/>
      <feBlend mode="normal" in="SourceGraphic" in2="BackgroundImageFix" result="shape"/>
      <feGaussianBlur stdDeviation="11" result="effect1_foregroundBlur_8258_27430"/>
    </filter>
    <linearGradient id="paint0_linear_8258_27430" x1="510.769" y1="-6.19849e-05" x2="792.91" y2="445.193" gradientUnits="userSpaceOnUse">
      <stop stop-color="#49415E"/>
      <stop offset="1" stop-color="#0E081F"/>
    </linearGradient>
    <clipPath id="clip0_8258_27430">
      <rect width="1440" height="312" fill="white"/>
    </clipPath>
  </defs>
</svg>
